<svg xmlns="http://www.w3.org/2000/svg" xmlns:xlink="http://www.w3.org/1999/xlink" width="1080" zoomAndPan="magnify" viewBox="0 0 810 809.999993" height="1080" preserveAspectRatio="xMidYMid meet" version="1.0"><defs><clipPath id="c76ed568ad"><path d="M 176.347656 155 L 633 155 L 633 662 L 176.347656 662 Z M 176.347656 155 " clip-rule="nonzero"/></clipPath></defs><g clip-path="url(#c76ed568ad)"><path fill="#ffffff" d="M 176.148438 363.246094 C 176.148438 352.589844 181.046875 342.085938 190.308594 335.304688 C 205.726562 324.011719 227.375 327.355469 238.664062 342.777344 L 404.207031 568.78125 L 569.738281 342.777344 C 581.027344 327.355469 602.675781 324.011719 618.097656 335.304688 C 633.515625 346.59375 636.859375 368.242188 625.570312 383.660156 L 432.125 647.773438 C 425.613281 656.667969 415.242188 661.933594 404.207031 661.933594 C 393.175781 661.933594 382.816406 656.683594 376.292969 647.773438 L 182.847656 383.660156 C 178.339844 377.5 176.160156 370.339844 176.160156 363.246094 Z M 182.835938 210.671875 L 376.28125 474.785156 C 382.792969 483.679688 393.160156 488.945312 404.195312 488.945312 C 415.226562 488.945312 425.585938 483.695312 432.109375 474.785156 L 625.554688 210.683594 C 636.847656 195.265625 633.503906 173.617188 618.082031 162.328125 C 602.675781 151.035156 581.027344 154.378906 569.738281 169.800781 L 404.195312 395.804688 L 238.652344 169.800781 C 227.359375 154.378906 205.714844 151.035156 190.292969 162.328125 C 181.046875 169.109375 176.132812 179.617188 176.132812 190.269531 C 176.132812 197.363281 178.3125 204.527344 182.820312 210.683594 Z M 182.835938 210.671875 " fill-opacity="1" fill-rule="nonzero"/></g></svg>